<svg width="200" height="183" viewBox="0 0 200 183" fill="none" xmlns="http://www.w3.org/2000/svg">
<g clip-path="url(#clip0)">
<path d="M172.361 16.827L4.77832 65.8094L9.2171 81.0928L176.8 32.1104L172.361 16.827Z" fill="#8D92A3"/>
<path d="M24.8001 136.012L0.0997576 50.9647C-0.0833638 50.3341 -0.00929649 49.6564 0.305654 49.0807C0.620605 48.5049 1.15064 48.0783 1.77917 47.8946L165.299 0.0995174C165.928 -0.0835714 166.603 -0.0090159 167.177 0.306827C167.75 0.62267 168.176 1.15399 168.359 1.78416L190.242 77.1296L189.565 77.3276L167.682 1.98211C167.551 1.53218 167.247 1.15288 166.837 0.92731C166.427 0.701742 165.945 0.648296 165.496 0.778691L1.97645 48.5737C1.5275 48.705 1.1489 49.0097 0.923937 49.421C0.698972 49.8323 0.646067 50.3163 0.776861 50.7667L25.4772 135.814L24.8001 136.012Z" fill="#3F3D56"/>
<path d="M154.05 77.4797C153.553 77.4792 153.071 77.3175 152.674 77.0189C152.277 76.7202 151.987 76.3007 151.848 75.823L147.705 61.5586C147.536 60.9731 147.605 60.3442 147.897 59.8097C148.19 59.2753 148.681 58.879 149.264 58.7078L163.484 54.5517C164.067 54.3819 164.694 54.4512 165.227 54.7445C165.76 55.0378 166.155 55.5312 166.325 56.1163L170.468 70.3808C170.638 70.9663 170.568 71.5952 170.276 72.1296C169.984 72.6641 169.492 73.0604 168.909 73.2316L154.69 77.3876C154.482 77.4486 154.266 77.4796 154.05 77.4797V77.4797Z" fill="#FFBC4E"/>
<path d="M24.4183 51.2277C24.3757 51.0811 24.3251 50.937 24.2666 50.7961C23.869 49.8281 23.1289 49.0416 22.1884 48.5878C21.2479 48.1339 20.1734 48.0448 19.1714 48.3375C18.1694 48.6301 17.3105 49.284 16.7598 50.1733C16.2091 51.0627 16.0055 52.1248 16.188 53.1556C16.2137 53.306 16.2478 53.4549 16.2903 53.6014C16.5478 54.4831 17.0831 55.2575 17.816 55.8085C18.549 56.3595 19.4401 56.6574 20.356 56.6578C20.7559 56.6587 21.1538 56.6015 21.5374 56.488C22.6139 56.1724 23.5218 55.4414 24.0618 54.4553C24.6019 53.4692 24.7301 52.3085 24.4183 51.2277V51.2277ZM21.3399 55.8088C20.4421 56.0702 19.4776 55.9637 18.6579 55.5128C17.8382 55.0619 17.2303 54.3032 16.9673 53.4033C16.926 53.2567 16.893 53.1079 16.8685 52.9575C16.7362 52.1082 16.9169 51.2396 17.3766 50.5142C17.8364 49.7888 18.5438 49.2563 19.3665 49.0161C20.1893 48.7759 21.0711 48.8446 21.847 49.2093C22.623 49.5741 23.2399 50.2098 23.5825 50.9977C23.6464 51.1361 23.6995 51.2792 23.7413 51.4258C24.0015 52.3265 23.8948 53.2939 23.4445 54.1157C22.9943 54.9375 22.2373 55.5465 21.3399 55.8088V55.8088Z" fill="#FFBC4E"/>
<path d="M14.0395 54.2594C13.8139 53.4819 13.8356 52.6532 14.1015 51.8886C14.3675 51.1241 14.8646 50.4619 15.5235 49.9941C14.9062 49.9639 14.2906 50.0822 13.7281 50.339C13.1656 50.5958 12.6723 50.9837 12.2895 51.4705C11.9067 51.9572 11.6453 52.5287 11.5273 53.1373C11.4092 53.7459 11.4378 54.374 11.6107 54.9693C11.7835 55.5646 12.0957 56.1098 12.5212 56.5595C12.9466 57.0092 13.473 57.3504 14.0566 57.5547C14.6401 57.7591 15.2638 57.8205 15.8758 57.734C16.4878 57.6475 17.0704 57.4156 17.5749 57.0575C16.7687 57.018 15.9949 56.7272 15.3612 56.2257C14.7274 55.7241 14.2655 55.0367 14.0395 54.2594V54.2594Z" fill="#FFBC4E"/>
<path d="M123.658 71.7914C123.583 71.5207 123.456 71.2675 123.283 71.0462C123.11 70.825 122.896 70.6401 122.652 70.5021C122.408 70.3641 122.139 70.2757 121.861 70.242C121.583 70.2083 121.301 70.2299 121.031 70.3056L97.6201 76.8748L95.0989 77.5823H110.932L113.453 76.8748L122.181 74.4268C122.725 74.2735 123.186 73.9099 123.463 73.4157C123.74 72.9216 123.81 72.3374 123.658 71.7914V71.7914Z" fill="#CCCCCC"/>
<path d="M107.095 66.8848C106.943 66.3388 106.58 65.876 106.088 65.598C105.595 65.3201 105.013 65.2498 104.468 65.4026L69.3396 75.2582C68.8487 75.3977 68.4237 75.7085 68.1411 76.1347C67.8586 76.5608 67.7371 77.0742 67.7986 77.5823H76.8928L79.4175 76.8748L105.618 69.5238C106.162 69.37 106.624 69.0057 106.901 68.5109C107.178 68.0161 107.248 67.4313 107.095 66.8848V66.8848Z" fill="#CCCCCC"/>
<path d="M197.532 76.874H27.2123C26.5579 76.8748 25.9304 77.1359 25.4677 77.6001C25.0049 78.0644 24.7446 78.6938 24.7439 79.3503V180.524C24.7446 181.18 25.0049 181.81 25.4677 182.274C25.9304 182.738 26.5578 182.999 27.2123 183H197.532C198.186 182.999 198.814 182.738 199.276 182.274C199.739 181.81 199.999 181.18 200 180.524V79.3503C199.999 78.6938 199.739 78.0644 199.276 77.6002C198.814 77.1359 198.186 76.8748 197.532 76.874V76.874ZM199.295 180.524C199.295 180.993 199.109 181.443 198.778 181.774C198.448 182.106 197.999 182.292 197.532 182.293H27.2123C26.7447 182.292 26.2964 182.106 25.9658 181.774C25.6351 181.443 25.4493 180.993 25.4492 180.524V79.3503C25.4494 78.8813 25.6352 78.4315 25.9658 78.0998C26.2964 77.7681 26.7447 77.5817 27.2123 77.5815H197.532C197.999 77.5817 198.448 77.7681 198.778 78.0998C199.109 78.4315 199.295 78.8813 199.295 79.3503V180.524Z" fill="#3F3D56"/>
<path d="M43.7845 90.6712C42.9476 90.6712 42.1295 90.4222 41.4336 89.9558C40.7377 89.4893 40.1954 88.8263 39.8751 88.0506C39.5548 87.275 39.471 86.4214 39.6343 85.598C39.7976 84.7745 40.2006 84.0181 40.7924 83.4244C41.3842 82.8308 42.1381 82.4265 42.959 82.2627C43.7798 82.0989 44.6306 82.1829 45.4039 82.5042C46.1771 82.8255 46.8379 83.3696 47.3029 84.0677C47.7679 84.7658 48.016 85.5865 48.016 86.4261C48.0148 87.5516 47.5685 88.6306 46.7752 89.4264C45.982 90.2222 44.9064 90.6699 43.7845 90.6712V90.6712ZM43.7845 82.8886C43.0871 82.8886 42.4053 83.0961 41.8254 83.4848C41.2455 83.8735 40.7936 84.426 40.5267 85.0724C40.2598 85.7188 40.1899 86.4301 40.326 87.1163C40.4621 87.8025 40.7979 88.4328 41.2911 88.9275C41.7842 89.4223 42.4125 89.7592 43.0966 89.8957C43.7806 90.0322 44.4896 89.9621 45.134 89.6944C45.7783 89.4266 46.329 88.9732 46.7165 88.3915C47.104 87.8097 47.3108 87.1258 47.3108 86.4261C47.3097 85.4882 46.9379 84.5891 46.2768 83.9259C45.6157 83.2627 44.7194 82.8897 43.7845 82.8886V82.8886Z" fill="#FFBC4E"/>
<path d="M37.2071 86.4261C37.2073 85.6164 37.4591 84.8268 37.9277 84.1675C38.3963 83.5081 39.0582 83.0118 39.8212 82.7476C39.2369 82.5454 38.613 82.4862 38.0013 82.5749C37.3896 82.6636 36.8079 82.8976 36.3046 83.2575C35.8013 83.6174 35.3911 84.0927 35.108 84.6439C34.8249 85.1951 34.6772 85.8061 34.6772 86.4261C34.6772 87.0462 34.8249 87.6572 35.108 88.2084C35.3911 88.7595 35.8013 89.2349 36.3046 89.5948C36.8079 89.9547 37.3896 90.1887 38.0013 90.2774C38.613 90.3661 39.2369 90.3069 39.8212 90.1047C39.0581 89.8405 38.3963 89.3442 37.9277 88.6848C37.4591 88.0254 37.2073 87.2359 37.2071 86.4261V86.4261Z" fill="#FFBC4E"/>
<path d="M60.9376 136.581C60.0962 136.58 59.2895 136.244 58.6945 135.647C58.0995 135.05 57.7649 134.241 57.7639 133.397V123.845C57.7639 123.001 58.0983 122.191 58.6934 121.594C59.2886 120.997 60.0959 120.662 60.9376 120.662C61.7793 120.662 62.5865 120.997 63.1817 121.594C63.7768 122.191 64.1112 123.001 64.1112 123.845V133.397C64.1102 134.241 63.7756 135.05 63.1806 135.647C62.5856 136.244 61.779 136.58 60.9376 136.581V136.581Z" fill="#FFBC4E"/>
<path d="M69.4007 136.581C68.5593 136.58 67.7526 136.244 67.1576 135.647C66.5627 135.05 66.228 134.241 66.2271 133.397V123.845C66.2271 123.001 66.5614 122.191 67.1566 121.594C67.7518 120.997 68.559 120.662 69.4007 120.662C70.2424 120.662 71.0496 120.997 71.6448 121.594C72.24 122.191 72.5743 123.001 72.5743 123.845V133.397C72.5734 134.241 72.2387 135.05 71.6437 135.647C71.0488 136.244 70.2421 136.58 69.4007 136.581V136.581Z" fill="#FFBC4E"/>
<path d="M77.8636 136.581C77.0222 136.58 76.2155 136.244 75.6206 135.647C75.0256 135.05 74.6909 134.241 74.6899 133.397V123.845C74.6899 123.001 75.0243 122.191 75.6195 121.594C76.2147 120.997 77.0219 120.662 77.8636 120.662C78.7053 120.662 79.5125 120.997 80.1077 121.594C80.7029 122.191 81.0373 123.001 81.0373 123.845V133.397C81.0363 134.241 80.7016 135.05 80.1067 135.647C79.5117 136.244 78.705 136.58 77.8636 136.581V136.581Z" fill="#FFBC4E"/>
<path d="M90.911 136.581C90.0695 136.58 89.2629 136.244 88.6679 135.647C88.073 135.05 87.7383 134.241 87.7373 133.397V123.845C87.7373 123.001 88.0717 122.191 88.6668 121.594C89.262 120.997 90.0692 120.662 90.911 120.662C91.7527 120.662 92.5599 120.997 93.1551 121.594C93.7502 122.191 94.0846 123.001 94.0846 123.845V133.397C94.0836 134.241 93.749 135.05 93.154 135.647C92.559 136.244 91.7524 136.58 90.911 136.581V136.581Z" fill="#FFBC4E"/>
<path d="M99.3741 136.581C98.5327 136.58 97.726 136.244 97.1311 135.647C96.5361 135.05 96.2014 134.241 96.2004 133.397V123.845C96.2004 123.001 96.5348 122.191 97.13 121.594C97.7252 120.997 98.5324 120.662 99.3741 120.662C100.216 120.662 101.023 120.997 101.618 121.594C102.213 122.191 102.548 123.001 102.548 123.845V133.397C102.547 134.241 102.212 135.05 101.617 135.647C101.022 136.244 100.215 136.58 99.3741 136.581V136.581Z" fill="#FFBC4E"/>
<path d="M107.837 136.581C106.996 136.58 106.189 136.244 105.594 135.647C104.999 135.05 104.664 134.241 104.663 133.397V123.845C104.663 123.001 104.998 122.191 105.593 121.594C106.188 120.997 106.995 120.662 107.837 120.662C108.679 120.662 109.486 120.997 110.081 121.594C110.676 122.191 111.011 123.001 111.011 123.845V133.397C111.01 134.241 110.675 135.05 110.08 135.647C109.485 136.244 108.678 136.58 107.837 136.581V136.581Z" fill="#FFBC4E"/>
<path d="M120.884 136.581C120.043 136.58 119.236 136.244 118.641 135.647C118.046 135.05 117.712 134.241 117.711 133.397V123.845C117.711 123.001 118.045 122.191 118.64 121.594C119.235 120.997 120.043 120.662 120.884 120.662C121.726 120.662 122.533 120.997 123.128 121.594C123.724 122.191 124.058 123.001 124.058 123.845V133.397C124.057 134.241 123.722 135.05 123.127 135.647C122.532 136.244 121.726 136.58 120.884 136.581V136.581Z" fill="#FFBC4E"/>
<path d="M129.347 136.581C128.506 136.58 127.699 136.244 127.104 135.647C126.509 135.05 126.175 134.241 126.174 133.397V123.845C126.174 123.001 126.508 122.191 127.103 121.594C127.699 120.997 128.506 120.662 129.347 120.662C130.189 120.662 130.996 120.997 131.592 121.594C132.187 122.191 132.521 123.001 132.521 123.845V133.397C132.52 134.241 132.185 135.05 131.591 135.647C130.996 136.244 130.189 136.58 129.347 136.581V136.581Z" fill="#FFBC4E"/>
<path d="M137.81 136.581C136.969 136.58 136.162 136.244 135.567 135.647C134.972 135.05 134.638 134.241 134.637 133.397V123.845C134.637 123.001 134.971 122.191 135.566 121.594C136.161 120.997 136.969 120.662 137.81 120.662C138.652 120.662 139.459 120.997 140.054 121.594C140.65 122.191 140.984 123.001 140.984 123.845V133.397C140.983 134.241 140.648 135.05 140.053 135.647C139.458 136.244 138.652 136.58 137.81 136.581V136.581Z" fill="#FFBC4E"/>
<path d="M150.858 136.581C150.016 136.58 149.21 136.244 148.615 135.647C148.02 135.05 147.685 134.241 147.684 133.397V123.845C147.684 123.001 148.018 122.191 148.614 121.594C149.209 120.997 150.016 120.662 150.858 120.662C151.699 120.662 152.507 120.997 153.102 121.594C153.697 122.191 154.031 123.001 154.031 123.845V133.397C154.03 134.241 153.696 135.05 153.101 135.647C152.506 136.244 151.699 136.58 150.858 136.581V136.581Z" fill="#FFBC4E"/>
<path d="M159.321 136.581C158.479 136.58 157.673 136.244 157.078 135.647C156.483 135.05 156.148 134.241 156.147 133.397V123.845C156.147 123.001 156.481 122.191 157.077 121.594C157.672 120.997 158.479 120.662 159.321 120.662C160.162 120.662 160.97 120.997 161.565 121.594C162.16 122.191 162.494 123.001 162.494 123.845V133.397C162.493 134.241 162.159 135.05 161.564 135.647C160.969 136.244 160.162 136.58 159.321 136.581V136.581Z" fill="#FFBC4E"/>
<path d="M167.784 136.581C166.942 136.58 166.136 136.244 165.541 135.647C164.946 135.05 164.611 134.241 164.61 133.397V123.845C164.61 123.001 164.944 122.191 165.54 121.594C166.135 120.997 166.942 120.662 167.784 120.662C168.625 120.662 169.433 120.997 170.028 121.594C170.623 122.191 170.957 123.001 170.957 123.845V133.397C170.956 134.241 170.622 135.05 170.027 135.647C169.432 136.244 168.625 136.58 167.784 136.581V136.581Z" fill="#FFBC4E"/>
<path d="M82.4542 172.015H36.81C36.2444 172.015 35.702 171.79 35.3021 171.388C34.9022 170.987 34.6775 170.443 34.6775 169.876C34.6775 169.308 34.9022 168.764 35.3021 168.363C35.702 167.962 36.2444 167.736 36.81 167.736H82.4542C83.0198 167.736 83.5622 167.962 83.9621 168.363C84.362 168.764 84.5867 169.308 84.5867 169.876C84.5867 170.443 84.362 170.987 83.9621 171.388C83.5622 171.79 83.0198 172.015 82.4542 172.015Z" fill="#E6E6E6"/>
<path d="M67.8201 162.817H51.444C50.8784 162.817 50.336 162.592 49.9361 162.191C49.5362 161.79 49.3115 161.245 49.3115 160.678C49.3115 160.111 49.5362 159.567 49.9361 159.165C50.336 158.764 50.8784 158.539 51.444 158.539H67.8201C68.3857 158.539 68.9281 158.764 69.328 159.165C69.7279 159.567 69.9526 160.111 69.9526 160.678C69.9526 161.245 69.7279 161.79 69.328 162.191C68.9281 162.592 68.3857 162.817 67.8201 162.817V162.817Z" fill="#E6E6E6"/>
<path d="M199.168 98.0215H25.3223V98.729H199.168V98.0215Z" fill="#3F3D56"/>
</g>
<defs>
<clipPath id="clip0">
<rect width="200" height="183" fill="white"/>
</clipPath>
</defs>
</svg>
